<?xml version="1.0" encoding="UTF-8"?> <svg xmlns="http://www.w3.org/2000/svg" width="98" height="35" viewBox="0 0 98 35" fill="none"> <path d="M0.476 0.129999H8.522V2.02H2.87V5.548H7.406V7.348H2.87V11.11H8.828V13H0.476V0.129999ZM11.958 0.129999H14.352V11.092H19.842V13H11.958V0.129999ZM22.9144 0.129999H25.3264V13H22.9144V0.129999ZM31.9063 2.02H28.3243V0.129999H37.9003V2.02H34.3183V13H31.9063V2.02ZM40.7967 0.129999H48.8427V2.02H43.1907V5.548H47.7267V7.348H43.1907V11.11H49.1487V13H40.7967V0.129999ZM0.476 21.13H4.616C6.104 21.13 7.268 21.466 8.108 22.138C8.96 22.81 9.386 23.8 9.386 25.108V25.18C9.386 26.488 8.96 27.472 8.108 28.132C7.256 28.78 6.11 29.104 4.67 29.104H2.87V34H0.476V21.13ZM4.616 27.376C6.236 27.376 7.046 26.644 7.046 25.18V25.108C7.046 23.692 6.236 22.984 4.616 22.984H2.87V27.376H4.616ZM12.4151 21.13H16.7351C18.2111 21.13 19.3811 21.442 20.2451 22.066C21.1091 22.69 21.5411 23.638 21.5411 24.91V24.982C21.5411 26.77 20.5871 27.922 18.6791 28.438L22.2971 34H19.7051L16.3391 28.798H14.8091V34H12.4151V21.13ZM16.7351 27.088C18.3671 27.088 19.1831 26.404 19.1831 25.036V24.964C19.1831 24.244 18.9731 23.734 18.5531 23.434C18.1451 23.134 17.5391 22.984 16.7351 22.984H14.8091V27.088H16.7351ZM30.9085 32.254C32.1205 32.254 33.0805 31.834 33.7885 30.994C34.5085 30.142 34.8685 29.014 34.8685 27.61V27.466C34.8685 26.11 34.5085 25.006 33.7885 24.154C33.0805 23.29 32.1085 22.858 30.8725 22.858C29.6245 22.858 28.6405 23.278 27.9205 24.118C27.2125 24.958 26.8585 26.08 26.8585 27.484V27.628C26.8585 29.02 27.2365 30.142 27.9925 30.994C28.7485 31.834 29.7205 32.254 30.9085 32.254ZM30.8725 34.18C28.9285 34.18 27.3565 33.562 26.1565 32.326C24.9565 31.09 24.3565 29.53 24.3565 27.646V27.502C24.3565 25.606 24.9625 24.04 26.1745 22.804C27.3985 21.568 28.9645 20.95 30.8725 20.95C32.7805 20.95 34.3345 21.562 35.5345 22.786C36.7465 23.998 37.3525 25.552 37.3525 27.448V27.592C37.3525 29.488 36.7525 31.06 35.5525 32.308C34.3645 33.556 32.8045 34.18 30.8725 34.18ZM40.635 21.13H44.775C46.263 21.13 47.427 21.466 48.267 22.138C49.119 22.81 49.545 23.8 49.545 25.108V25.18C49.545 26.488 49.119 27.472 48.267 28.132C47.415 28.78 46.269 29.104 44.829 29.104H43.029V34H40.635V21.13ZM44.775 27.376C46.395 27.376 47.205 26.644 47.205 25.18V25.108C47.205 23.692 46.395 22.984 44.775 22.984H43.029V27.376H44.775ZM52.574 21.13H60.62V23.02H54.968V26.548H59.504V28.348H54.968V32.11H60.926V34H52.574V21.13ZM64.0561 21.13H68.3761C69.8521 21.13 71.0221 21.442 71.8861 22.066C72.7501 22.69 73.1821 23.638 73.1821 24.91V24.982C73.1821 26.77 72.2281 27.922 70.3201 28.438L73.9381 34H71.3461L67.9801 28.798H66.4501V34H64.0561V21.13ZM68.3761 27.088C70.0081 27.088 70.8241 26.404 70.8241 25.036V24.964C70.8241 24.244 70.6141 23.734 70.1941 23.434C69.7861 23.134 69.1801 22.984 68.3761 22.984H66.4501V27.088H68.3761ZM79.1316 23.02H75.5496V21.13H85.1256V23.02H81.5436V34H79.1316V23.02ZM91.2939 28.42L87.0279 21.13H89.6739L92.5719 26.458L95.3979 21.13H97.7379L93.7059 28.438V34H91.2939V28.42Z" fill="white"></path> </svg> 