<?xml version="1.0" encoding="UTF-8"?> <svg xmlns="http://www.w3.org/2000/svg" width="155" height="15" viewBox="0 0 155 15" fill="none"> <path d="M0.476 1.13H8.522V3.02H2.87V6.548H7.406V8.348H2.87V12.11H8.828V14H0.476V1.13ZM11.958 1.13H14.352V12.092H19.842V14H11.958V1.13ZM22.9144 1.13H25.3264V14H22.9144V1.13ZM31.9063 3.02H28.3243V1.13H37.9003V3.02H34.3183V14H31.9063V3.02ZM40.7967 1.13H48.8427V3.02H43.1907V6.548H47.7267V8.348H43.1907V12.11H49.1487V14H40.7967V1.13ZM57.5381 1.13H61.6781C63.1661 1.13 64.3301 1.466 65.1701 2.138C66.0221 2.81 66.4481 3.8 66.4481 5.108V5.18C66.4481 6.488 66.0221 7.472 65.1701 8.132C64.3181 8.78 63.1721 9.104 61.7321 9.104H59.9321V14H57.5381V1.13ZM61.6781 7.376C63.2981 7.376 64.1081 6.644 64.1081 5.18V5.108C64.1081 3.692 63.2981 2.984 61.6781 2.984H59.9321V7.376H61.6781ZM69.4772 1.13H73.7972C75.2732 1.13 76.4432 1.442 77.3072 2.066C78.1712 2.69 78.6032 3.638 78.6032 4.91V4.982C78.6032 6.77 77.6492 7.922 75.7412 8.438L79.3592 14H76.7672L73.4012 8.798H71.8712V14H69.4772V1.13ZM73.7972 7.088C75.4292 7.088 76.2452 6.404 76.2452 5.036V4.964C76.2452 4.244 76.0352 3.734 75.6152 3.434C75.2072 3.134 74.6012 2.984 73.7972 2.984H71.8712V7.088H73.7972ZM87.9706 12.254C89.1826 12.254 90.1426 11.834 90.8506 10.994C91.5706 10.142 91.9306 9.014 91.9306 7.61V7.466C91.9306 6.11 91.5706 5.006 90.8506 4.154C90.1426 3.29 89.1706 2.858 87.9346 2.858C86.6866 2.858 85.7026 3.278 84.9826 4.118C84.2746 4.958 83.9206 6.08 83.9206 7.484V7.628C83.9206 9.02 84.2986 10.142 85.0546 10.994C85.8106 11.834 86.7826 12.254 87.9706 12.254ZM87.9346 14.18C85.9906 14.18 84.4186 13.562 83.2186 12.326C82.0186 11.09 81.4186 9.53 81.4186 7.646V7.502C81.4186 5.606 82.0246 4.04 83.2366 2.804C84.4606 1.568 86.0266 0.95 87.9346 0.95C89.8426 0.95 91.3966 1.562 92.5966 2.786C93.8086 3.998 94.4146 5.552 94.4146 7.448V7.592C94.4146 9.488 93.8146 11.06 92.6146 12.308C91.4266 13.556 89.8666 14.18 87.9346 14.18ZM97.6971 1.13H101.837C103.325 1.13 104.489 1.466 105.329 2.138C106.181 2.81 106.607 3.8 106.607 5.108V5.18C106.607 6.488 106.181 7.472 105.329 8.132C104.477 8.78 103.331 9.104 101.891 9.104H100.091V14H97.6971V1.13ZM101.837 7.376C103.457 7.376 104.267 6.644 104.267 5.18V5.108C104.267 3.692 103.457 2.984 101.837 2.984H100.091V7.376H101.837ZM109.636 1.13H117.682V3.02H112.03V6.548H116.566V8.348H112.03V12.11H117.988V14H109.636V1.13ZM121.118 1.13H125.438C126.914 1.13 128.084 1.442 128.948 2.066C129.812 2.69 130.244 3.638 130.244 4.91V4.982C130.244 6.77 129.29 7.922 127.382 8.438L131 14H128.408L125.042 8.798H123.512V14H121.118V1.13ZM125.438 7.088C127.07 7.088 127.886 6.404 127.886 5.036V4.964C127.886 4.244 127.676 3.734 127.256 3.434C126.848 3.134 126.242 2.984 125.438 2.984H123.512V7.088H125.438ZM136.194 3.02H132.612V1.13H142.188V3.02H138.606V14H136.194V3.02ZM148.356 8.42L144.09 1.13H146.736L149.634 6.458L152.46 1.13H154.8L150.768 8.438V14H148.356V8.42Z" fill="white"></path> </svg> 